<svg width="10" height="10" viewBox="0 0 10 10" fill="none" xmlns="http://www.w3.org/2000/svg">
<g clip-path="url(#clip0_3_225)">
<path d="M10 5C10 7.4957 8.17148 9.56426 5.78125 9.93926V6.44531H6.94629L7.16797 5H5.78125V4.06211C5.78125 3.6666 5.975 3.28125 6.59609 3.28125H7.22656V2.05078C7.22656 2.05078 6.6543 1.95313 6.10723 1.95313C4.96523 1.95313 4.21875 2.64531 4.21875 3.89844V5H2.94922V6.44531H4.21875V9.93926C1.82852 9.56426 0 7.4957 0 5C0 2.23867 2.23867 0 5 0C7.76133 0 10 2.23867 10 5Z" fill="#1877F2"/>
<path d="M6.94629 6.44531L7.16797 5H5.78125V4.06209C5.78125 3.66668 5.97496 3.28125 6.59607 3.28125H7.22656V2.05078C7.22656 2.05078 6.65438 1.95312 6.10732 1.95312C4.96521 1.95312 4.21875 2.64531 4.21875 3.89844V5H2.94922V6.44531H4.21875V9.93924C4.47332 9.97918 4.73422 10 5 10C5.26578 10 5.52668 9.97918 5.78125 9.93924V6.44531H6.94629Z" fill="white"/>
</g>
<defs>
<clipPath id="clip0_3_225">
<rect width="10" height="10" fill="white"/>
</clipPath>
</defs>
</svg>
