<svg width="10" height="10" viewBox="0 0 10 10" fill="none" xmlns="http://www.w3.org/2000/svg">
<g clip-path="url(#clip0_3_136)">
<path d="M9.62243 4.13064L5.54352 4.13045C5.3634 4.13045 5.21741 4.27642 5.21741 4.45654V5.75957C5.21741 5.93965 5.3634 6.08566 5.5435 6.08566H7.84049C7.58897 6.73842 7.11952 7.28508 6.52057 7.63242L7.5 9.32791C9.07114 8.41926 10 6.82494 10 5.04021C10 4.78609 9.98127 4.60443 9.94381 4.39988C9.91534 4.24447 9.78041 4.13064 9.62243 4.13064Z" fill="#167EE6"/>
<path d="M5.00003 8.04347C3.87593 8.04347 2.8946 7.42929 2.36755 6.52045L0.672119 7.49767C1.53491 8.99303 3.1512 10 5.00003 10C5.907 10 6.7628 9.7558 7.50003 9.33023V9.32791L6.5206 7.6324C6.07259 7.89224 5.55415 8.04347 5.00003 8.04347Z" fill="#12B347"/>
<path d="M7.5 9.33023V9.32791L6.52057 7.6324C6.07256 7.89222 5.55416 8.04347 5 8.04347V10C5.90697 10 6.76281 9.7558 7.5 9.33023Z" fill="#0F993E"/>
<path d="M1.95652 4.99999C1.95652 4.44591 2.10773 3.92753 2.36752 3.47955L0.67209 2.50232C0.24418 3.23722 0 4.0907 0 4.99999C0 5.90929 0.24418 6.76277 0.67209 7.49767L2.36752 6.52044C2.10773 6.07246 1.95652 5.55408 1.95652 4.99999Z" fill="#FFD500"/>
<path d="M5.00003 1.95652C5.73306 1.95652 6.40638 2.21699 6.93229 2.65025C7.06204 2.75713 7.25062 2.74941 7.36946 2.63057L8.2927 1.70732C8.42755 1.57248 8.41794 1.35176 8.2739 1.2268C7.39274 0.462363 6.24626 0 5.00003 0C3.1512 0 1.53491 1.00697 0.672119 2.50232L2.36755 3.47955C2.8946 2.5707 3.87593 1.95652 5.00003 1.95652Z" fill="#FF4B26"/>
<path d="M6.93227 2.65025C7.06201 2.75713 7.25061 2.74941 7.36943 2.63057L8.29268 1.70732C8.4275 1.57248 8.41789 1.35176 8.27387 1.2268C7.39271 0.462344 6.24623 0 5 0V1.95652C5.73301 1.95652 6.40635 2.21699 6.93227 2.65025Z" fill="#D93F21"/>
</g>
<defs>
<clipPath id="clip0_3_136">
<rect width="10" height="10" fill="white"/>
</clipPath>
</defs>
</svg>
